<svg xmlns="http://www.w3.org/2000/svg" width="150" height="150" fill="none" viewBox="0 0 150 150">
  <g filter="url(#a)">
    <path fill="#86EFAC" d="M61.892 71.904c7.107-7.552 19.11-7.552 26.216 0l23.295 24.754c10.811 11.487 2.666 30.336-13.108 30.336h-46.59c-15.774 0-23.919-18.849-13.108-30.336l23.295-24.754Z"/>
    <path stroke="#233B51" stroke-width="4" d="M112.86 95.287 89.565 70.534c-7.897-8.392-21.233-8.392-29.13 0L37.14 95.287c-12.012 12.764-2.962 33.707 14.565 33.707h46.59c17.527 0 26.577-20.943 14.565-33.707Z"/>
  </g>
  <g filter="url(#b)">
    <path fill="#86EFAC" d="M88.108 78.096c-7.107 7.552-19.11 7.552-26.216 0L38.597 53.342c-10.81-11.487-2.666-30.336 13.108-30.336h46.59c15.774 0 23.919 18.849 13.108 30.336L88.108 78.096Z"/>
    <path stroke="#233B51" stroke-width="4" d="m37.14 54.713 23.295 24.753c7.897 8.392 21.233 8.392 29.13 0l23.295-24.753c12.012-12.764 2.962-33.707-14.565-33.707h-46.59c-17.527 0-26.576 20.943-14.565 33.707Z"/>
  </g>
  <path fill="#86EFAC" d="M61.892 71.904c7.107-7.552 19.11-7.552 26.216 0l23.295 24.754c10.811 11.487 2.666 30.336-13.108 30.336h-46.59c-15.774 0-23.919-18.849-13.108-30.336l23.295-24.754Z"/>
  <path fill="#233B51" d="M80.805 70.192a9 9 0 0 1-12.61 0L52.712 54.993c-5.75-5.645-1.754-15.422 6.305-15.422h30.967c8.058 0 12.055 9.777 6.304 15.422L80.805 70.192Zm-11.12 22.121a9 9 0 0 1 9.63 0l15.467 9.795c7.616 4.823 4.2 16.604-4.815 16.604H59.033c-9.014 0-12.43-11.781-4.815-16.604l15.467-9.795Z"/>
  <defs>
    <filter id="a" width="98.678" height="76.754" x="25.661" y="62.24" color-interpolation-filters="sRGB" filterUnits="userSpaceOnUse">
      <feFlood flood-opacity="0" result="BackgroundImageFix"/>
      <feColorMatrix in="SourceAlpha" result="hardAlpha" values="0 0 0 0 0 0 0 0 0 0 0 0 0 0 0 0 0 0 127 0"/>
      <feOffset dy="4"/>
      <feGaussianBlur stdDeviation="2"/>
      <feComposite in2="hardAlpha" operator="out"/>
      <feColorMatrix values="0 0 0 0 0 0 0 0 0 0 0 0 0 0 0 0 0 0 0.25 0"/>
      <feBlend in2="BackgroundImageFix" result="effect1_dropShadow_120_49"/>
      <feBlend in="SourceGraphic" in2="effect1_dropShadow_120_49" result="shape"/>
    </filter>
    <filter id="b" width="98.678" height="76.754" x="25.661" y="19.006" color-interpolation-filters="sRGB" filterUnits="userSpaceOnUse">
      <feFlood flood-opacity="0" result="BackgroundImageFix"/>
      <feColorMatrix in="SourceAlpha" result="hardAlpha" values="0 0 0 0 0 0 0 0 0 0 0 0 0 0 0 0 0 0 127 0"/>
      <feOffset dy="4"/>
      <feGaussianBlur stdDeviation="2"/>
      <feComposite in2="hardAlpha" operator="out"/>
      <feColorMatrix values="0 0 0 0 0 0 0 0 0 0 0 0 0 0 0 0 0 0 0.25 0"/>
      <feBlend in2="BackgroundImageFix" result="effect1_dropShadow_120_49"/>
      <feBlend in="SourceGraphic" in2="effect1_dropShadow_120_49" result="shape"/>
    </filter>
  </defs>
</svg>
