<svg xmlns="http://www.w3.org/2000/svg" width="150" height="150" fill="none" viewBox="0 0 150 150">
  <g filter="url(#a)">
    <path fill="#86EFAC" d="M61.892 71.904c7.107-7.552 19.11-7.552 26.216 0l23.295 24.754c10.811 11.487 2.666 30.336-13.108 30.336h-46.59c-15.774 0-23.919-18.849-13.108-30.336l23.295-24.754Z"/>
    <path stroke="#233B51" stroke-width="4" d="m86.652 73.275 23.295 24.754c9.609 10.211 2.37 26.965-11.652 26.965h-46.59c-14.022 0-21.261-16.754-11.652-26.965l23.295-24.754c6.318-6.713 16.986-6.713 23.304 0Z"/>
  </g>
  <g filter="url(#b)">
    <path fill="#86EFAC" d="M88.108 78.096c-7.107 7.552-19.11 7.552-26.216 0L38.597 53.342c-10.81-11.487-2.666-30.336 13.108-30.336h46.59c15.774 0 23.919 18.849 13.108 30.336L88.108 78.096Z"/>
    <path stroke="#233B51" stroke-width="4" d="M63.348 76.725 40.053 51.971c-9.61-10.21-2.37-26.965 11.652-26.965h46.59c14.022 0 21.261 16.754 11.652 26.965L86.652 76.725c-6.318 6.713-16.986 6.713-23.304 0Z"/>
  </g>
  <path fill="#233B51" d="M80.805 70.192a9 9 0 0 1-12.61 0L52.712 54.993c-5.75-5.645-1.754-15.422 6.305-15.422h30.967c8.058 0 12.055 9.777 6.304 15.422L80.805 70.192Zm-11.61 18.997a9 9 0 0 1 12.61 0l15.483 15.198c5.751 5.645 1.754 15.423-6.305 15.423H60.016c-8.058 0-12.055-9.778-6.304-15.423l15.483-15.198Z"/>
  <defs>
    <filter id="a" width="90.662" height="68.754" x="29.669" y="66.24" color-interpolation-filters="sRGB" filterUnits="userSpaceOnUse">
      <feFlood flood-opacity="0" result="BackgroundImageFix"/>
      <feColorMatrix in="SourceAlpha" result="hardAlpha" values="0 0 0 0 0 0 0 0 0 0 0 0 0 0 0 0 0 0 127 0"/>
      <feOffset dy="4"/>
      <feGaussianBlur stdDeviation="2"/>
      <feComposite in2="hardAlpha" operator="out"/>
      <feColorMatrix values="0 0 0 0 0 0 0 0 0 0 0 0 0 0 0 0 0 0 0.25 0"/>
      <feBlend in2="BackgroundImageFix" result="effect1_dropShadow_120_49"/>
      <feBlend in="SourceGraphic" in2="effect1_dropShadow_120_49" result="shape"/>
    </filter>
    <filter id="b" width="90.662" height="68.754" x="29.669" y="23.006" color-interpolation-filters="sRGB" filterUnits="userSpaceOnUse">
      <feFlood flood-opacity="0" result="BackgroundImageFix"/>
      <feColorMatrix in="SourceAlpha" result="hardAlpha" values="0 0 0 0 0 0 0 0 0 0 0 0 0 0 0 0 0 0 127 0"/>
      <feOffset dy="4"/>
      <feGaussianBlur stdDeviation="2"/>
      <feComposite in2="hardAlpha" operator="out"/>
      <feColorMatrix values="0 0 0 0 0 0 0 0 0 0 0 0 0 0 0 0 0 0 0.25 0"/>
      <feBlend in2="BackgroundImageFix" result="effect1_dropShadow_120_49"/>
      <feBlend in="SourceGraphic" in2="effect1_dropShadow_120_49" result="shape"/>
    </filter>
  </defs>
</svg>
