<svg xmlns="http://www.w3.org/2000/svg" width="150" height="150" fill="none" viewBox="0 0 150 150">
  <path fill="#0EFF8B" stroke="#233B51" stroke-width="4" d="M112.86 95.287 89.565 70.534c-7.897-8.392-21.233-8.392-29.13 0L37.14 95.287c-12.012 12.764-2.962 33.707 14.565 33.707h46.59c17.527 0 26.577-20.943 14.565-33.707Z"/>
  <path fill="#0EFF8B" stroke="#233B51" stroke-width="4" d="m37.14 54.713 23.295 24.753c7.897 8.392 21.233 8.392 29.13 0l23.295-24.753c12.012-12.764 2.962-33.707-14.565-33.707h-46.59c-17.527 0-26.576 20.943-14.565 33.707Z"/>
  <path fill="#0EFF8B" d="M61.892 71.904c7.107-7.552 19.11-7.552 26.216 0l23.295 24.754c10.811 11.487 2.666 30.336-13.108 30.336h-46.59c-15.774 0-23.919-18.849-13.108-30.336l23.295-24.754Z"/>
  <path fill="#233B51" d="M80.805 77.554a9 9 0 0 1-12.61 0L52.712 62.355c-5.75-5.645-1.754-15.422 6.305-15.422h30.967c8.058 0 12.055 9.777 6.304 15.422L80.805 77.554ZM68.195 89.93a9 9 0 0 1 12.61 0l15.483 15.199c5.751 5.645 1.754 15.423-6.305 15.423H59.017c-8.059 0-12.056-9.778-6.305-15.423l15.483-15.198Z"/>
</svg>
