<svg xmlns="http://www.w3.org/2000/svg" width="613" height="533" fill="none" viewBox="0 0 613 533">
  <path fill="#86EFAC" d="M605.386 199.196c-16.862 157.606-136.941 322.26-303.608 304.429C135.11 485.793 13.67 343.572 30.532 185.966c16.862-157.607 71.966-20.46 238.633-2.628C435.833 201.17 622.249 41.59 605.386 199.196Z"/>
  <g filter="url(#a)">
    <path id="notepad" fill="#CBFAF0" d="M138 48h336l-56 328-237-24-43-304Z"/>
  </g>
  <path stroke="#233B51" stroke-linecap="round" stroke-width="3" d="M158 68c-1.887 2.005-2.453 5.59-5 6.5-2.681.958-6.73 1.42-9.556 1.5-2.435.07-15.489 1.388-16.444-1-.971-2.428-3.124-1.69-3-4.778.095-2.38 2.111-1.571 3.444-2.333C130.202 66.313 132.174 64 136 64m24 18c-6.165 6.165-17.942 6-26.222 6-3.757 0-7.834.989-10.278-1.944-1.505-1.806-3.097-6.056.5-6.056"/>
  <path stroke="#233B51" stroke-width="3" d="m173.006 85.5 271 1.004M198.036 319.5l209 5m-218.043-42 218-1M183 234.5h224m-234.994-39 242 .949M173.018 156.5l248 3m-248.989-44 260 5"/>
  <path stroke="#233B51" stroke-linecap="round" stroke-width="3" d="M140.816 151.659c-3.831 0-8.411 5.122-4.76 8.569 2.782 2.628 8.631 2.38 12.139 2.38 3.142 0 5.862-.691 8.807-1.428m-11.425-22.85c-2.206.276-6.579 4.318-6.665 6.559-.192 5.004 19.336 1.666 22.374 1.058m-2.38 95.209c-2.47.412-4.343 2.188-6.136 3.597-1.992 1.566-.076 4.02 1.852 4.02h10.949c2.213 0 3.839-.111 5.924-.741 1.223-.369 2.741.168 3.597-.687m-17.614-21.423c-2.726 0-3.688.786-6.083 1.799-1.304.552-1.721 4.089-.555 4.866 6.108 4.072 17.137 3.081 23.299 0m-7.14 74.263c-.695.618-1.664.705-2.38 1.27-1.191.937-2.073 2.289-3.333 3.279-3.037 2.387.838 5.02 3.121 5.66 3.283.919 9.299.898 12.377-.582 2.494-1.199 5.63-2.449 7.828-3.914m-15.233 10.949c-2.136.565-5.108 1.508-5.765 3.808-.239.835-1.114.946-.635 1.904.633 1.267 2.169 1.401 3.438 1.428 3.955.085 9.512 1.012 13.171-.502 1.626-.673 6.112-.991 6.453-2.354"/>
  <path fill="#FDFDFD" d="M453.1 53.59c0 .719.104 2.143.215 3.88.353 2.377.423 4.595.616 7.103.375 4.873 9.369 8.952 13.475 8.952.17 0 .33 0 .48-.002 3.573-.036 1.354-.477 0 0-.277.097-.517.233-.665.418-.771.964-2.283.445-3.322 1.707-1.258 1.528-2.996 1.984-4.154 3.507-3.018 3.972-4.153 7.602-4.153 12.644 0-4.12-.52-10.487-5.168-12.275-3.294-1.266-6.688-2.353-10.199-2.722-1.401-.148-8.176-.563-3.737-.785 5.603-.28 10.596-3.085 15.597-5.168 1.915-.798 1.547-8.382 1.23-13.38-.05-.335-.106-.674-.169-1.018-.229-1.263-.046-7.263-.046-2.861Z"/>
  <path stroke="#FDFDFD" stroke-linecap="round" stroke-width="2" d="M453.1 53.59c0 2.788 1.565 16.184-1.015 17.259-5.001 2.083-9.994 4.888-15.597 5.168-4.439.222 2.336.637 3.737.785 3.511.37 6.905 1.456 10.199 2.722 4.648 1.788 5.168 8.156 5.168 12.275 0 3.528 0 4.468 0 0 0-5.042 1.135-8.672 4.153-12.644 1.158-1.523 2.896-1.98 4.154-3.507 1.039-1.262 2.551-.743 3.322-1.707.904-1.13 5.255-.416.185-.416-4.106 0-13.1-4.08-13.475-8.952-.22-2.863-.28-5.347-.785-8.122-.229-1.263-.046-7.263-.046-2.861Z"/>
  <path stroke="#233B51" stroke-linecap="round" stroke-width="2" d="M453.1 53.59c0 2.788 1.565 16.184-1.015 17.259-5.001 2.083-9.994 4.888-15.597 5.168-4.439.222 2.336.637 3.737.785 3.511.37 6.905 1.456 10.199 2.722 4.648 1.788 5.168 8.156 5.168 12.275 0 3.528 0 4.468 0 0 0-5.042 1.135-8.672 4.153-12.644 1.158-1.523 2.896-1.98 4.154-3.507 1.039-1.262 2.551-.743 3.322-1.707.904-1.13 5.255-.416.185-.416-4.106 0-13.1-4.08-13.475-8.952-.22-2.863-.28-5.347-.785-8.122-.229-1.263-.046-7.263-.046-2.861Z"/>
  <path fill="#FDFDFD" d="M428.145 20.058c2.928-2.927 4.332-5.616 4.776-9.162.982 4.693 3.16 8.618 7.269 12.531 3.147 2.998 6.234 4.506 9.967 6 3.279 1.31 1.978.645-.877.645-8.728 0-11.152 9.136-17.028 13.752-2.091 1.643-3.055 4.79-3.276 7.337a22.57 22.57 0 0 0-.046 1.309v.03c0 1.878-.015 1.006 0-.03-.004-3.154-.614-7.562-1.477-10.584-.725-2.539-.309-6.986-2.03-9.137-1.493-1.865-4.197-3.352-5.446-5.169-.514-.748-1.47-1.385-2.591-1.894-2.082.244-4.395.233-7.192.233-5.776 0-2.713-1.776 1.292-1.661 1.512.043 3.955.544 5.9 1.428 3.845-.45 6.901-1.77 10.759-5.628Z"/>
  <path stroke="#FDFDFD" stroke-linecap="round" stroke-width="2" d="M431.422 1c2.356.295 1.661 5.439 1.661 7.06 0 5.053-1.278 8.339-4.938 11.998-5.946 5.947-9.989 5.861-17.951 5.861-5.776 0-2.713-1.776 1.292-1.661 2.383.068 7.084 1.275 8.491 3.322 1.249 1.817 3.953 3.304 5.446 5.169 1.721 2.151 1.305 6.598 2.03 9.137.866 3.031 1.477 7.458 1.477 10.614 0 2.766-.033-.434.046-1.339.221-2.546 1.185-5.694 3.276-7.337 5.876-4.616 8.3-13.752 17.028-13.752 2.855 0 4.156.666.877-.646-3.733-1.493-6.82-3-9.967-5.999-6.09-5.799-7.938-11.622-7.938-19.935"/>
  <path stroke="#233B51" stroke-linecap="round" stroke-width="2" d="M431.422 1c2.356.295 1.661 5.439 1.661 7.06 0 5.053-1.278 8.339-4.938 11.998-5.946 5.947-9.989 5.861-17.951 5.861-5.776 0-2.713-1.776 1.292-1.661 2.383.068 7.084 1.275 8.491 3.322 1.249 1.817 3.953 3.304 5.446 5.169 1.721 2.151 1.305 6.598 2.03 9.137.866 3.031 1.477 7.458 1.477 10.614 0 2.766-.033-.434.046-1.339.221-2.546 1.185-5.694 3.276-7.337 5.876-4.616 8.3-13.752 17.028-13.752 2.855 0 4.156.666.877-.646-3.733-1.493-6.82-3-9.967-5.999-6.09-5.799-7.938-11.622-7.938-19.935"/>
  <path fill="#FDFDFD" d="M480.628 29.669c1.06.185 1.103 1.983.786 3.82.557 1.43 1.397 2.763 2.534 4.848 1.583 2.902 6.761 4.107 2.446 4.614-2.058.243-4.338 4.681-5.353 6.276-.375.589-1.292 4.638-1.292 2.446 0-1.184-.831-1.625-.831-2.907 0-4.272-.647-3.872-3.738-6.276-1.582-1.23-7.248-2.861-4.384-2.861 2.661 0 7.497.177 9.322-2.169.388-.5 1-2.252 1.296-3.971-.425-1.092-.685-2.24-.786-3.82Z"/>
  <path stroke="#FDFDFD" stroke-linecap="round" stroke-width="2" d="M480.579 29.661c2.128.266.349 6.758-.461 7.799-1.825 2.346-6.661 2.169-9.322 2.169-2.864 0 2.802 1.63 4.384 2.861 3.091 2.404 3.738 2.004 3.738 6.276 0 1.282.831 1.723.831 2.907 0 2.192.917-1.857 1.292-2.446 1.015-1.595 3.295-6.033 5.353-6.275 4.315-.508-.863-1.712-2.446-4.615-2.285-4.189-3.369-5.345-3.369-10.337"/>
  <path stroke="#233B51" stroke-linecap="round" stroke-width="2" d="M480.579 29.661c2.128.266.349 6.758-.461 7.799-1.825 2.346-6.661 2.169-9.322 2.169-2.864 0 2.802 1.63 4.384 2.861 3.091 2.404 3.738 2.004 3.738 6.276 0 1.282.831 1.723.831 2.907 0 2.192.917-1.857 1.292-2.446 1.015-1.595 3.295-6.033 5.353-6.275 4.315-.508-.863-1.712-2.446-4.615-2.285-4.189-3.369-5.345-3.369-10.337"/>
  <defs>
    <filter id="a" width="340" height="340" x="136" y="48" color-interpolation-filters="sRGB" filterUnits="userSpaceOnUse">
      <feFlood flood-opacity="0" result="BackgroundImageFix"/>
      <feColorMatrix in="SourceAlpha" result="hardAlpha" values="0 0 0 0 0 0 0 0 0 0 0 0 0 0 0 0 0 0 127 0"/>
      <feOffset dy="10"/>
      <feGaussianBlur stdDeviation="1"/>
      <feComposite in2="hardAlpha" operator="out"/>
      <feColorMatrix values="0 0 0 0 0.137222 0 0 0 0 0.23053 0 0 0 0 0.316667 0 0 0 1 0"/>
      <feBlend in2="BackgroundImageFix" result="effect1_dropShadow_202_238"/>
      <feBlend in="SourceGraphic" in2="effect1_dropShadow_202_238" result="shape"/>
    </filter>
  </defs>
</svg>
